<?xml version="1.0" encoding="UTF-8" standalone="no"?>
<svg
   inkscape:export-ydpi="300"
   inkscape:export-xdpi="300"
   inkscape:export-filename="logo.svg"
   width="10mm"
   height="3.6634283mm"
   viewBox="0 0 10 3.6634283"
   version="1.1"
   id="svg8"
   inkscape:version="1.3 (0e150ed, 2023-07-21)"
   sodipodi:docname="logo.svg"
   xmlns:inkscape="http://www.inkscape.org/namespaces/inkscape"
   xmlns:sodipodi="http://sodipodi.sourceforge.net/DTD/sodipodi-0.dtd"
   xmlns="http://www.w3.org/2000/svg"
   xmlns:svg="http://www.w3.org/2000/svg"
   xmlns:rdf="http://www.w3.org/1999/02/22-rdf-syntax-ns#"
   xmlns:cc="http://creativecommons.org/ns#"
   xmlns:dc="http://purl.org/dc/elements/1.1/">
  <defs
     id="defs2" />
  <sodipodi:namedview
     id="base"
     pagecolor="#ffffff"
     bordercolor="#666666"
     borderopacity="1.0"
     inkscape:pageopacity="0.0"
     inkscape:pageshadow="2"
     inkscape:zoom="12.942737"
     inkscape:cx="23.719867"
     inkscape:cy="25.458293"
     inkscape:document-units="mm"
     inkscape:current-layer="layer1"
     inkscape:document-rotation="0"
     showgrid="false"
     inkscape:window-width="1680"
     inkscape:window-height="997"
     inkscape:window-x="0"
     inkscape:window-y="25"
     inkscape:window-maximized="1"
     inkscape:showpageshadow="2"
     inkscape:pagecheckerboard="0"
     inkscape:deskcolor="#d1d1d1" />
  <metadata
     id="metadata5">
    <rdf:RDF>
      <cc:Work
         rdf:about="">
        <dc:format>image/svg+xml</dc:format>
        <dc:type
           rdf:resource="http://purl.org/dc/dcmitype/StillImage" />
        <dc:title />
      </cc:Work>
    </rdf:RDF>
  </metadata>
  <g
     inkscape:label="Camada 1"
     inkscape:groupmode="layer"
     id="layer1"
     transform="translate(-83.159739,-57.376032)">
    <circle
       r="0.17445549"
       cx="92.648849"
       cy="59.180779"
       id="path859"
       style="fill:#6b7ac9;stroke:#cc2557;stroke-width:0;stroke-miterlimit:4;stroke-dasharray:none" />
    <g
       id="g4882"
       transform="matrix(0.07929795,0,0,0.07929795,80.729644,51.796264)">
      <path
         sodipodi:nodetypes="ccccccscscscccssccsscscscscsscsscsssscscccsccccccccscsccccsccsscccccccscccccszzszzscccccsccccccscccsccccccccccccccsssssccccc"
         style="fill:#6b7ac9;fill-opacity:1;stroke:none;stroke-width:0.352778;stroke-opacity:1"
         d="m 85.441197,116.08699 c 1.483932,-0.64767 3.397367,-2.87922 5.349378,-6.23873 0.917565,-1.57918 2.006833,-3.09305 2.420603,-3.36416 0.649809,-0.42577 1.493477,-0.39919 6.192552,0.19507 2.99213,0.3784 6.36919,0.78917 7.50457,0.91282 2.04221,0.2224 2.05544,0.23111 1.23473,0.81231 -0.6632,0.46966 -1.55245,0.57258 -4.43331,0.51313 -1.98203,-0.0409 -3.69046,0.066 -3.796509,0.23761 -0.323723,0.5238 1.729099,1.73311 3.903279,2.29941 5.28379,1.37625 12.00065,-0.11226 16.32154,-3.61698 1.506,-1.22154 1.65619,-1.261 7.76111,-2.0395 10.52187,-1.34175 20.04813,-3.62707 23.56563,-5.65333 1.57149,-0.905247 4.16697,-3.886784 4.88947,-5.616731 0.24311,-0.582083 0.42087,-1.693333 0.39504,-2.469444 -0.0457,-1.372682 -0.11422,-1.447054 -2.51641,-2.730936 -2.59528,-1.38708 -6.67272,-2.752192 -10.23056,-3.425158 -1.16417,-0.220202 -2.86043,-0.634598 -3.76948,-0.920878 -0.90904,-0.286281 -2.33779,-0.671711 -3.175,-0.856513 -0.8372,-0.184801 -2.55406,-0.59386 -3.81524,-0.909021 -7.81582,-1.953122 -13.69183,-2.584948 -26.60009,-2.86021 L 96.09381,80.130803 94.295281,78.667209 C 89.899466,75.090013 81.694186,70.360172 79.891996,70.3646 c -1.786612,0.0044 -3.674269,0.838387 -5.080551,2.24467 -1.695436,1.695437 -2.241874,3.302003 -2.244668,6.599507 -0.0021,2.595013 0.375754,3.163096 2.975772,4.472718 l 1.390237,0.700259 -3.154126,0.486967 c -1.998602,0.308564 -6.126685,0.486966 -11.268019,0.486966 h -8.113889 l -3.351389,-1.106774 c -1.843264,-0.608725 -5.58141,-2.146684 -8.306993,-3.417685 -2.725582,-1.271002 -6.031364,-2.581136 -7.346188,-2.911408 -2.326008,-0.584275 -2.416087,-0.581571 -3.334674,0.100102 -1.297538,0.962888 -1.715375,2.818903 -1.194097,5.304118 0.563319,2.685645 2.251361,5.435042 5.100702,8.307771 2.826861,2.850065 2.944364,3.490683 1.275312,6.953043 -0.944223,1.958736 -1.103171,2.678806 -1.090213,4.938886 0.02656,4.6303 1.921499,9.17222 3.826774,9.17222 1.978992,0 3.600387,-1.57416 7.056036,-6.85051 1.208366,-1.84503 1.66666,-2.22443 3.938168,-3.26023 1.413862,-0.64471 3.504254,-1.83059 4.645311,-2.635282 3.101089,-2.186949 4.710528,-2.235928 8.002912,-0.243549 4.106443,2.485001 6.642146,4.659591 8.737978,7.493581 3.975071,5.37509 8.672438,9.39192 10.949012,9.36274 0.592603,-0.008 1.553711,-0.22167 2.135794,-0.47572 z M 101.3162,106.1127 c -1.746252,-0.28554 -3.571877,-0.51859 -4.056947,-0.51788 l -0.881944,0.001 0.881944,-0.36923 c 0.48507,-0.20308 1.239132,-0.50721 1.675695,-0.67585 1.892132,-0.73101 0.323099,-2.08574 -2.415547,-2.08574 -0.769712,0 -1.969389,-0.23813 -2.665949,-0.52917 -0.696563,-0.29104 -1.608639,-0.52916 -2.026842,-0.52916 -0.418201,0 -1.122518,-0.25367 -1.565149,-0.5637 -0.747137,-0.52331 -0.931248,-0.50928 -2.570455,0.19589 l -1.765674,0.75957 -3.240677,-0.9247 c -1.782374,-0.50858 -4.19318,-1.339479 -5.357347,-1.846443 -1.164166,-0.506964 -2.592916,-0.894479 -3.175,-0.861144 -0.582083,0.03333 -1.296458,-0.0946 -1.5875,-0.284309 -0.759308,-0.494931 1.728096,-0.450472 9.701389,0.173398 8.098244,0.633647 11.50249,1.071557 14.993056,1.928654 3.587507,0.880904 6.008257,1.129254 10.938537,1.122244 2.93709,-0.004 4.47238,-0.15726 5.1738,-0.51587 0.77151,-0.39445 1.47674,-0.43913 3.11405,-0.19729 2.51523,0.3715 6.1392,-0.1546 7.86947,-1.142442 1.45433,-0.8303 1.72762,-0.828597 3.65225,0.02276 1.47659,0.653162 1.64794,0.659341 3.30804,0.119298 0.96294,-0.31325 1.94924,-0.618247 2.19177,-0.677771 0.24254,-0.05952 0.44097,-0.351333 0.44097,-0.648464 0,-0.701342 -1.47049,-0.710077 -2.81134,-0.0167 -0.89508,0.462867 -1.18437,0.462867 -2.49627,0 -1.84352,-0.650429 -2.99842,-0.665715 -3.57608,-0.04733 -0.37319,0.399496 -0.52147,0.399581 -0.92052,5.29e-4 -0.73564,-0.735638 -2.1855,-0.971526 -3.39002,-0.551544 -1.493,0.520565 -2.75221,0.583808 -5.85577,0.294101 -1.45521,-0.135839 -6.26789,-0.383543 -10.69486,-0.550453 -4.426967,-0.16691 -7.874578,0.294846 -8.173408,-0.427852 -0.29883,-0.722698 0.245026,-1.184155 0.607646,-1.258841 1.099713,-0.2265 5.494442,0.246769 8.388812,0.29194 2.89437,0.04517 3.03041,0.08692 7.2706,0.194036 4.24019,0.107119 4.20728,0.114536 9.38044,-0.05535 3.9353,-0.129235 7.42591,0.299769 7.75641,0.394237 0.3305,0.09447 1.43087,-0.07471 2.44528,-0.37596 3.1819,-0.944923 3.61817,-0.817537 4.68784,1.368801 0.66982,1.369057 1.40433,2.225626 2.57133,2.998605 1.81628,1.20306 2.40148,1.3272 2.69167,0.57099 0.11987,-0.31238 -0.0802,-0.59882 -0.5146,-0.73669 -1.01786,-0.323049 -3.08177,-2.214362 -3.68101,-3.373163 -0.94181,-1.821248 -0.51136,-2.853045 1.85267,-4.440907 0.73009,-0.490381 1.18769,-0.606346 3.80979,-0.965474 0.58209,-0.07972 1.3101,-0.244424 1.61782,-0.366002 0.48086,-0.189991 0.53671,0.05348 0.39745,1.732744 -0.15717,1.895342 -0.11974,1.996072 1.2511,3.36692 1.19685,1.196851 1.63813,1.413125 2.88326,1.413125 1.63279,0 3.32682,-0.732314 3.87628,-1.675686 0.33046,-0.567372 0.36035,-0.56023 0.36899,0.08819 0.0156,1.173231 -1.29072,2.929662 -2.70814,3.641138 -4.23928,2.127925 -14.36498,4.422945 -25.14926,5.700165 -3.39548,0.40214 -7.84048,0.95532 -9.87777,1.22928 -4.1858,0.56287 -9.68191,0.41387 -14.64028,-0.3969 z m -17.625821,-1.88096 c -0.663176,-0.2394 -0.658054,-0.26841 0.121052,-0.68538 1.035121,-0.55398 2.37938,-0.22349 2.877612,0.70746 0.366275,0.68439 0.31659,0.70897 -0.959954,0.47483 -0.740424,-0.13581 -1.657844,-0.35942 -2.03871,-0.49691 z m 63.451651,-8.61022 c -1.37548,-1.375483 -1.59483,-3.008775 -0.59827,-4.454699 0.95692,-1.388405 1.58951,-1.730998 3.21833,-1.74297 2.15828,-0.01586 3.59209,1.416596 3.58099,3.577616 -0.0182,3.533197 -3.72268,5.098423 -6.20105,2.620053 z M 103.7606,91.851563 c -1.47298,-0.256327 -3.7311,-0.263893 -7.231946,-0.02423 -6.206324,0.424872 -13.027734,0.165006 -13.027734,-0.496301 0,-0.297464 0.751028,-0.517347 2.204861,-0.645532 3.405988,-0.300306 13.268336,-0.736964 15.434029,-0.683346 7.81529,0.193491 14.91612,0.53565 16.40417,0.790447 0.97014,0.166116 3.0493,0.222088 4.62036,0.124382 2.47068,-0.153654 2.88775,-0.09618 3.08795,0.42556 0.12731,0.331763 0.13738,0.755453 0.0224,0.941533 -0.27227,0.440538 -18.61631,0.07176 -21.51407,-0.432511 z"
         id="path4892"
         inkscape:connector-curvature="0" />
    </g>
  </g>
</svg>
